<mxfile host="app.diagrams.net" modified="2020-09-02T20:51:48.223Z" agent="5.0 (Windows NT 10.0; Win64; x64) AppleWebKit/537.36 (KHTML, like Gecko) Chrome/85.0.4183.83 Safari/537.36" etag="a7HIaLCA0r_M_cwSXUPc" version="13.6.6" type="github">
  <diagram id="C5RBs43oDa-KdzZeNtuy" name="Page-1">
    <mxGraphModel dx="2070" dy="1846" grid="1" gridSize="10" guides="1" tooltips="1" connect="1" arrows="1" fold="1" page="1" pageScale="1" pageWidth="827" pageHeight="1169" math="0" shadow="0">
      <root>
        <mxCell id="WIyWlLk6GJQsqaUBKTNV-0" />
        <mxCell id="WIyWlLk6GJQsqaUBKTNV-1" parent="WIyWlLk6GJQsqaUBKTNV-0" />
        <mxCell id="G8lH4gLovTFMAIjntWoF-49" style="edgeStyle=orthogonalEdgeStyle;rounded=0;orthogonalLoop=1;jettySize=auto;html=1;entryX=-0.005;entryY=0.773;entryDx=0;entryDy=0;entryPerimeter=0;" parent="WIyWlLk6GJQsqaUBKTNV-1" target="G8lH4gLovTFMAIjntWoF-47" edge="1">
          <mxGeometry relative="1" as="geometry">
            <mxPoint x="535" y="420" as="sourcePoint" />
            <mxPoint x="695" y="417" as="targetPoint" />
          </mxGeometry>
        </mxCell>
        <mxCell id="G8lH4gLovTFMAIjntWoF-56" value="" style="endArrow=block;endSize=16;endFill=0;html=1;elbow=vertical;entryX=0;entryY=0.5;entryDx=0;entryDy=0;" parent="WIyWlLk6GJQsqaUBKTNV-1" target="G8lH4gLovTFMAIjntWoF-45" edge="1">
          <mxGeometry width="160" relative="1" as="geometry">
            <mxPoint x="190" y="469" as="sourcePoint" />
            <mxPoint x="330" y="462" as="targetPoint" />
          </mxGeometry>
        </mxCell>
        <mxCell id="G8lH4gLovTFMAIjntWoF-58" style="edgeStyle=none;rounded=0;orthogonalLoop=1;jettySize=auto;html=1;entryX=0.25;entryY=0;entryDx=0;entryDy=0;" parent="WIyWlLk6GJQsqaUBKTNV-1" source="G8lH4gLovTFMAIjntWoF-39" target="G8lH4gLovTFMAIjntWoF-39" edge="1">
          <mxGeometry relative="1" as="geometry" />
        </mxCell>
        <mxCell id="G8lH4gLovTFMAIjntWoF-59" style="edgeStyle=none;rounded=0;orthogonalLoop=1;jettySize=auto;html=1;exitX=0.5;exitY=0;exitDx=0;exitDy=0;" parent="WIyWlLk6GJQsqaUBKTNV-1" source="G8lH4gLovTFMAIjntWoF-39" target="G8lH4gLovTFMAIjntWoF-39" edge="1">
          <mxGeometry relative="1" as="geometry" />
        </mxCell>
        <mxCell id="lWYO2RM16D954IE-6P65-1" value="1..*" style="text;html=1;align=center;verticalAlign=middle;resizable=0;points=[];autosize=1;" parent="WIyWlLk6GJQsqaUBKTNV-1" vertex="1">
          <mxGeometry x="426" y="532.5" width="30" height="20" as="geometry" />
        </mxCell>
        <mxCell id="lWYO2RM16D954IE-6P65-16" value="&lt;p style=&quot;margin: 0px ; margin-top: 4px ; text-align: center&quot;&gt;&lt;i&gt;&amp;lt;&amp;lt;Enumeration&amp;gt;&amp;gt;&lt;/i&gt;&lt;br&gt;&lt;b&gt;CategoríaProducto&lt;/b&gt;&lt;/p&gt;&lt;hr size=&quot;1&quot;&gt;&lt;p style=&quot;margin: 0px ; margin-left: 4px&quot;&gt;&amp;nbsp;ENTRADA&lt;/p&gt;&lt;p style=&quot;margin: 0px ; margin-left: 4px&quot;&gt;&amp;nbsp;PLATO_FUERTE&lt;/p&gt;&lt;p style=&quot;margin: 0px ; margin-left: 4px&quot;&gt;&amp;nbsp;POSTRE&lt;/p&gt;&lt;p style=&quot;margin: 0px ; margin-left: 4px&quot;&gt;&amp;nbsp;BEBIDA&lt;/p&gt;&lt;p style=&quot;margin: 0px ; margin-left: 4px&quot;&gt;&amp;nbsp;ACOMPAÑAMIENTO&lt;/p&gt;" style="verticalAlign=top;align=left;overflow=fill;fontSize=12;fontFamily=Helvetica;html=1;" parent="WIyWlLk6GJQsqaUBKTNV-1" vertex="1">
          <mxGeometry x="75" y="249" width="130" height="125.5" as="geometry" />
        </mxCell>
        <mxCell id="lWYO2RM16D954IE-6P65-17" value="&lt;p style=&quot;margin: 0px ; margin-top: 4px ; text-align: center&quot;&gt;&lt;i&gt;&amp;lt;&amp;lt;Enumeration&amp;gt;&amp;gt;&lt;/i&gt;&lt;br&gt;&lt;b&gt;TipoZona&lt;/b&gt;&lt;/p&gt;&lt;hr size=&quot;1&quot;&gt;&lt;p style=&quot;margin: 0px ; margin-left: 4px&quot;&gt;&amp;nbsp;MESA&lt;/p&gt;&lt;p style=&quot;margin: 0px ; margin-left: 4px&quot;&gt;&amp;nbsp;BARRA&lt;/p&gt;&lt;p style=&quot;margin: 0px ; margin-left: 4px&quot;&gt;&lt;br&gt;&lt;/p&gt;" style="verticalAlign=top;align=left;overflow=fill;fontSize=12;fontFamily=Helvetica;html=1;" parent="WIyWlLk6GJQsqaUBKTNV-1" vertex="1">
          <mxGeometry x="1280" y="221" width="100" height="82" as="geometry" />
        </mxCell>
        <mxCell id="lWYO2RM16D954IE-6P65-52" style="edgeStyle=orthogonalEdgeStyle;rounded=0;orthogonalLoop=1;jettySize=auto;html=1;" parent="WIyWlLk6GJQsqaUBKTNV-1" source="G8lH4gLovTFMAIjntWoF-2" target="G8lH4gLovTFMAIjntWoF-25" edge="1">
          <mxGeometry relative="1" as="geometry">
            <Array as="points">
              <mxPoint x="470" y="250" />
              <mxPoint x="470" y="250" />
            </Array>
          </mxGeometry>
        </mxCell>
        <mxCell id="lWYO2RM16D954IE-6P65-53" value="" style="endArrow=none;dashed=1;html=1;dashPattern=1 3;strokeWidth=2;exitX=0.01;exitY=1.058;exitDx=0;exitDy=0;exitPerimeter=0;" parent="WIyWlLk6GJQsqaUBKTNV-1" source="lWYO2RM16D954IE-6P65-3" edge="1">
          <mxGeometry width="50" height="50" relative="1" as="geometry">
            <mxPoint x="568.5" y="280" as="sourcePoint" />
            <mxPoint x="470" y="264" as="targetPoint" />
          </mxGeometry>
        </mxCell>
        <mxCell id="lWYO2RM16D954IE-6P65-54" value="" style="rhombus;whiteSpace=wrap;html=1;" parent="WIyWlLk6GJQsqaUBKTNV-1" vertex="1">
          <mxGeometry x="347.5" y="240" width="72.5" height="54" as="geometry" />
        </mxCell>
        <mxCell id="lWYO2RM16D954IE-6P65-60" value="0..*" style="text;html=1;align=center;verticalAlign=middle;resizable=0;points=[];autosize=1;" parent="WIyWlLk6GJQsqaUBKTNV-1" vertex="1">
          <mxGeometry x="470" y="332" width="30" height="20" as="geometry" />
        </mxCell>
        <mxCell id="lWYO2RM16D954IE-6P65-64" value="1..*" style="text;html=1;align=center;verticalAlign=middle;resizable=0;points=[];autosize=1;" parent="WIyWlLk6GJQsqaUBKTNV-1" vertex="1">
          <mxGeometry x="675" y="423" width="30" height="20" as="geometry" />
        </mxCell>
        <mxCell id="lWYO2RM16D954IE-6P65-67" value="0..5" style="text;html=1;align=center;verticalAlign=middle;resizable=0;points=[];autosize=1;" parent="WIyWlLk6GJQsqaUBKTNV-1" vertex="1">
          <mxGeometry x="280" y="426" width="40" height="20" as="geometry" />
        </mxCell>
        <mxCell id="lWYO2RM16D954IE-6P65-68" style="edgeStyle=orthogonalEdgeStyle;rounded=0;orthogonalLoop=1;jettySize=auto;html=1;entryX=0.5;entryY=1.038;entryDx=0;entryDy=0;entryPerimeter=0;" parent="WIyWlLk6GJQsqaUBKTNV-1" source="lWYO2RM16D954IE-6P65-6" edge="1">
          <mxGeometry relative="1" as="geometry">
            <mxPoint x="427.5" y="534.9879999999998" as="targetPoint" />
          </mxGeometry>
        </mxCell>
        <mxCell id="lWYO2RM16D954IE-6P65-70" value="" style="endArrow=none;html=1;entryX=1;entryY=0.5;entryDx=0;entryDy=0;" parent="WIyWlLk6GJQsqaUBKTNV-1" source="lWYO2RM16D954IE-6P65-11" target="lWYO2RM16D954IE-6P65-7" edge="1">
          <mxGeometry width="50" height="50" relative="1" as="geometry">
            <mxPoint x="340" y="800" as="sourcePoint" />
            <mxPoint x="442" y="730" as="targetPoint" />
          </mxGeometry>
        </mxCell>
        <mxCell id="lWYO2RM16D954IE-6P65-71" value="1" style="text;html=1;align=center;verticalAlign=middle;resizable=0;points=[];autosize=1;" parent="WIyWlLk6GJQsqaUBKTNV-1" vertex="1">
          <mxGeometry x="507.5" y="644" width="20" height="20" as="geometry" />
        </mxCell>
        <mxCell id="lWYO2RM16D954IE-6P65-72" value="1" style="text;html=1;align=center;verticalAlign=middle;resizable=0;points=[];autosize=1;" parent="WIyWlLk6GJQsqaUBKTNV-1" vertex="1">
          <mxGeometry x="633.25" y="664" width="20" height="20" as="geometry" />
        </mxCell>
        <mxCell id="lWYO2RM16D954IE-6P65-73" value="0..*" style="text;html=1;align=center;verticalAlign=middle;resizable=0;points=[];autosize=1;" parent="WIyWlLk6GJQsqaUBKTNV-1" vertex="1">
          <mxGeometry x="425" y="580" width="30" height="20" as="geometry" />
        </mxCell>
        <mxCell id="lWYO2RM16D954IE-6P65-74" value="0..*" style="text;html=1;align=center;verticalAlign=middle;resizable=0;points=[];autosize=1;" parent="WIyWlLk6GJQsqaUBKTNV-1" vertex="1">
          <mxGeometry x="190" y="426" width="30" height="20" as="geometry" />
        </mxCell>
        <mxCell id="lWYO2RM16D954IE-6P65-75" value="1..*" style="text;html=1;align=center;verticalAlign=middle;resizable=0;points=[];autosize=1;" parent="WIyWlLk6GJQsqaUBKTNV-1" vertex="1">
          <mxGeometry x="467" y="210" width="30" height="20" as="geometry" />
        </mxCell>
        <mxCell id="lWYO2RM16D954IE-6P65-76" value="1" style="text;html=1;align=center;verticalAlign=middle;resizable=0;points=[];autosize=1;" parent="WIyWlLk6GJQsqaUBKTNV-1" vertex="1">
          <mxGeometry x="383.75" y="77" width="20" height="20" as="geometry" />
        </mxCell>
        <mxCell id="lWYO2RM16D954IE-6P65-77" value="0..1" style="text;html=1;align=center;verticalAlign=middle;resizable=0;points=[];autosize=1;" parent="WIyWlLk6GJQsqaUBKTNV-1" vertex="1">
          <mxGeometry x="403.75" y="38" width="40" height="20" as="geometry" />
        </mxCell>
        <mxCell id="lWYO2RM16D954IE-6P65-78" value="" style="endArrow=none;html=1;" parent="WIyWlLk6GJQsqaUBKTNV-1" source="G8lH4gLovTFMAIjntWoF-2" target="G8lH4gLovTFMAIjntWoF-24" edge="1">
          <mxGeometry width="50" height="50" relative="1" as="geometry">
            <mxPoint x="330" y="110" as="sourcePoint" />
            <mxPoint x="410" y="50" as="targetPoint" />
          </mxGeometry>
        </mxCell>
        <mxCell id="lWYO2RM16D954IE-6P65-81" value="" style="endArrow=block;endSize=16;endFill=0;html=1;elbow=vertical;" parent="WIyWlLk6GJQsqaUBKTNV-1" target="mlz2ho6D6sc-BdiUoQuA-1" edge="1">
          <mxGeometry width="160" relative="1" as="geometry">
            <mxPoint x="1099" y="230" as="sourcePoint" />
            <mxPoint x="1152" y="281" as="targetPoint" />
          </mxGeometry>
        </mxCell>
        <mxCell id="lWYO2RM16D954IE-6P65-160" style="edgeStyle=orthogonalEdgeStyle;rounded=0;orthogonalLoop=1;jettySize=auto;html=1;entryX=0.75;entryY=0;entryDx=0;entryDy=0;" parent="WIyWlLk6GJQsqaUBKTNV-1" source="lWYO2RM16D954IE-6P65-85" target="lWYO2RM16D954IE-6P65-143" edge="1">
          <mxGeometry relative="1" as="geometry" />
        </mxCell>
        <mxCell id="lWYO2RM16D954IE-6P65-94" style="edgeStyle=orthogonalEdgeStyle;rounded=0;orthogonalLoop=1;jettySize=auto;html=1;" parent="WIyWlLk6GJQsqaUBKTNV-1" source="G8lH4gLovTFMAIjntWoF-50" edge="1">
          <mxGeometry relative="1" as="geometry">
            <mxPoint x="320" y="447" as="targetPoint" />
          </mxGeometry>
        </mxCell>
        <mxCell id="G8lH4gLovTFMAIjntWoF-50" value="Menú" style="swimlane;fontStyle=1;align=center;verticalAlign=top;childLayout=stackLayout;horizontal=1;startSize=26;horizontalStack=0;resizeParent=1;resizeParentMax=0;resizeLast=0;collapsible=1;marginBottom=0;" parent="WIyWlLk6GJQsqaUBKTNV-1" vertex="1">
          <mxGeometry x="90" y="417" width="100" height="60" as="geometry" />
        </mxCell>
        <mxCell id="lWYO2RM16D954IE-6P65-98" value="0..*" style="text;html=1;align=center;verticalAlign=middle;resizable=0;points=[];autosize=1;" parent="WIyWlLk6GJQsqaUBKTNV-1" vertex="1">
          <mxGeometry x="535" y="397" width="30" height="20" as="geometry" />
        </mxCell>
        <mxCell id="lWYO2RM16D954IE-6P65-43" value="Reserva" style="swimlane;fontStyle=1;childLayout=stackLayout;horizontal=1;startSize=26;fillColor=none;horizontalStack=0;resizeParent=1;resizeParentMax=0;resizeLast=0;collapsible=1;marginBottom=0;" parent="WIyWlLk6GJQsqaUBKTNV-1" vertex="1">
          <mxGeometry x="1220" y="540" width="180" height="156" as="geometry" />
        </mxCell>
        <mxCell id="lWYO2RM16D954IE-6P65-44" value="+ fecha: Date" style="text;strokeColor=none;fillColor=none;align=left;verticalAlign=top;spacingLeft=4;spacingRight=4;overflow=hidden;rotatable=0;points=[[0,0.5],[1,0.5]];portConstraint=eastwest;" parent="lWYO2RM16D954IE-6P65-43" vertex="1">
          <mxGeometry y="26" width="180" height="26" as="geometry" />
        </mxCell>
        <mxCell id="lWYO2RM16D954IE-6P65-45" value="+ hora: Date&#xa;" style="text;strokeColor=none;fillColor=none;align=left;verticalAlign=top;spacingLeft=4;spacingRight=4;overflow=hidden;rotatable=0;points=[[0,0.5],[1,0.5]];portConstraint=eastwest;" parent="lWYO2RM16D954IE-6P65-43" vertex="1">
          <mxGeometry y="52" width="180" height="26" as="geometry" />
        </mxCell>
        <mxCell id="z9EYBBxq6BNeT-gzfXoJ-1" value="+ númeroAsistentes: Integer" style="text;strokeColor=none;fillColor=none;align=left;verticalAlign=top;spacingLeft=4;spacingRight=4;overflow=hidden;rotatable=0;points=[[0,0.5],[1,0.5]];portConstraint=eastwest;" parent="lWYO2RM16D954IE-6P65-43" vertex="1">
          <mxGeometry y="78" width="180" height="26" as="geometry" />
        </mxCell>
        <mxCell id="lWYO2RM16D954IE-6P65-46" value="+ costoTotal: Double" style="text;strokeColor=none;fillColor=none;align=left;verticalAlign=top;spacingLeft=4;spacingRight=4;overflow=hidden;rotatable=0;points=[[0,0.5],[1,0.5]];portConstraint=eastwest;" parent="lWYO2RM16D954IE-6P65-43" vertex="1">
          <mxGeometry y="104" width="180" height="26" as="geometry" />
        </mxCell>
        <mxCell id="LS7pylw66wCmVB_VHnnQ-7" value="+ activa: Boolean" style="text;strokeColor=none;fillColor=none;align=left;verticalAlign=top;spacingLeft=4;spacingRight=4;overflow=hidden;rotatable=0;points=[[0,0.5],[1,0.5]];portConstraint=eastwest;" parent="lWYO2RM16D954IE-6P65-43" vertex="1">
          <mxGeometry y="130" width="180" height="26" as="geometry" />
        </mxCell>
        <mxCell id="lWYO2RM16D954IE-6P65-113" value="" style="endArrow=none;html=1;entryX=1;entryY=1;entryDx=0;entryDy=0;exitX=0.5;exitY=0;exitDx=0;exitDy=0;" parent="WIyWlLk6GJQsqaUBKTNV-1" source="G8lH4gLovTFMAIjntWoF-25" target="lWYO2RM16D954IE-6P65-54" edge="1">
          <mxGeometry width="50" height="50" relative="1" as="geometry">
            <mxPoint x="394" y="331" as="sourcePoint" />
            <mxPoint x="441" y="240" as="targetPoint" />
          </mxGeometry>
        </mxCell>
        <mxCell id="lWYO2RM16D954IE-6P65-117" value="" style="endArrow=none;html=1;exitX=1;exitY=0;exitDx=0;exitDy=0;entryX=0.706;entryY=0.962;entryDx=0;entryDy=0;entryPerimeter=0;" parent="WIyWlLk6GJQsqaUBKTNV-1" source="lWYO2RM16D954IE-6P65-54" target="G8lH4gLovTFMAIjntWoF-17" edge="1">
          <mxGeometry width="50" height="50" relative="1" as="geometry">
            <mxPoint x="297.5" y="240" as="sourcePoint" />
            <mxPoint x="420" y="230" as="targetPoint" />
            <Array as="points">
              <mxPoint x="410" y="240" />
            </Array>
          </mxGeometry>
        </mxCell>
        <mxCell id="lWYO2RM16D954IE-6P65-118" value="" style="endArrow=none;html=1;entryX=0;entryY=0.5;entryDx=0;entryDy=0;" parent="WIyWlLk6GJQsqaUBKTNV-1" target="lWYO2RM16D954IE-6P65-54" edge="1">
          <mxGeometry width="50" height="50" relative="1" as="geometry">
            <mxPoint x="320" y="350" as="sourcePoint" />
            <mxPoint x="329" y="252" as="targetPoint" />
            <Array as="points">
              <mxPoint x="320" y="267" />
            </Array>
          </mxGeometry>
        </mxCell>
        <mxCell id="lWYO2RM16D954IE-6P65-119" value="0..*" style="text;html=1;align=center;verticalAlign=middle;resizable=0;points=[];autosize=1;" parent="WIyWlLk6GJQsqaUBKTNV-1" vertex="1">
          <mxGeometry x="315" y="332" width="30" height="20" as="geometry" />
        </mxCell>
        <mxCell id="lWYO2RM16D954IE-6P65-122" value="" style="rhombus;whiteSpace=wrap;html=1;" parent="WIyWlLk6GJQsqaUBKTNV-1" vertex="1">
          <mxGeometry x="738.75" y="190" width="72.5" height="54" as="geometry" />
        </mxCell>
        <mxCell id="G8lH4gLovTFMAIjntWoF-25" value="Producto" style="swimlane;fontStyle=1;align=center;verticalAlign=top;childLayout=stackLayout;horizontal=1;startSize=26;horizontalStack=0;resizeParent=1;resizeParentMax=0;resizeLast=0;collapsible=1;marginBottom=0;" parent="WIyWlLk6GJQsqaUBKTNV-1" vertex="1">
          <mxGeometry x="320" y="352" width="215" height="182" as="geometry" />
        </mxCell>
        <mxCell id="G8lH4gLovTFMAIjntWoF-26" value="+ nombre: String" style="text;strokeColor=none;fillColor=none;align=left;verticalAlign=top;spacingLeft=4;spacingRight=4;overflow=hidden;rotatable=0;points=[[0,0.5],[1,0.5]];portConstraint=eastwest;" parent="G8lH4gLovTFMAIjntWoF-25" vertex="1">
          <mxGeometry y="26" width="215" height="26" as="geometry" />
        </mxCell>
        <mxCell id="G8lH4gLovTFMAIjntWoF-43" value="+ descripciónEspañol: String" style="text;strokeColor=none;fillColor=none;align=left;verticalAlign=top;spacingLeft=4;spacingRight=4;overflow=hidden;rotatable=0;points=[[0,0.5],[1,0.5]];portConstraint=eastwest;" parent="G8lH4gLovTFMAIjntWoF-25" vertex="1">
          <mxGeometry y="52" width="215" height="26" as="geometry" />
        </mxCell>
        <mxCell id="G8lH4gLovTFMAIjntWoF-44" value="+ descripciónInglés: String" style="text;strokeColor=none;fillColor=none;align=left;verticalAlign=top;spacingLeft=4;spacingRight=4;overflow=hidden;rotatable=0;points=[[0,0.5],[1,0.5]];portConstraint=eastwest;" parent="G8lH4gLovTFMAIjntWoF-25" vertex="1">
          <mxGeometry y="78" width="215" height="26" as="geometry" />
        </mxCell>
        <mxCell id="G8lH4gLovTFMAIjntWoF-45" value="+ tiempoPreparación: int" style="text;strokeColor=none;fillColor=none;align=left;verticalAlign=top;spacingLeft=4;spacingRight=4;overflow=hidden;rotatable=0;points=[[0,0.5],[1,0.5]];portConstraint=eastwest;" parent="G8lH4gLovTFMAIjntWoF-25" vertex="1">
          <mxGeometry y="104" width="215" height="26" as="geometry" />
        </mxCell>
        <mxCell id="G8lH4gLovTFMAIjntWoF-33" value="+ categoría: CategoríaProducto" style="text;strokeColor=none;fillColor=none;align=left;verticalAlign=top;spacingLeft=4;spacingRight=4;overflow=hidden;rotatable=0;points=[[0,0.5],[1,0.5]];portConstraint=eastwest;" parent="G8lH4gLovTFMAIjntWoF-25" vertex="1">
          <mxGeometry y="130" width="215" height="26" as="geometry" />
        </mxCell>
        <mxCell id="lWYO2RM16D954IE-6P65-142" value="+ tipoComida:  String" style="text;strokeColor=none;fillColor=none;align=left;verticalAlign=top;spacingLeft=4;spacingRight=4;overflow=hidden;rotatable=0;points=[[0,0.5],[1,0.5]];portConstraint=eastwest;" parent="G8lH4gLovTFMAIjntWoF-25" vertex="1">
          <mxGeometry y="156" width="215" height="26" as="geometry" />
        </mxCell>
        <mxCell id="lWYO2RM16D954IE-6P65-128" value="" style="endArrow=none;html=1;entryX=1;entryY=0.808;entryDx=0;entryDy=0;exitX=0;exitY=0;exitDx=0;exitDy=0;entryPerimeter=0;" parent="WIyWlLk6GJQsqaUBKTNV-1" source="lWYO2RM16D954IE-6P65-122" target="fQCK8GI9MLXAGGj5P5s3-0" edge="1">
          <mxGeometry width="50" height="50" relative="1" as="geometry">
            <mxPoint x="840" y="370" as="sourcePoint" />
            <mxPoint x="890" y="320" as="targetPoint" />
          </mxGeometry>
        </mxCell>
        <mxCell id="lWYO2RM16D954IE-6P65-129" value="" style="endArrow=none;html=1;entryX=0;entryY=1;entryDx=0;entryDy=0;exitX=0;exitY=0;exitDx=0;exitDy=0;" parent="WIyWlLk6GJQsqaUBKTNV-1" source="G8lH4gLovTFMAIjntWoF-39" target="lWYO2RM16D954IE-6P65-122" edge="1">
          <mxGeometry width="50" height="50" relative="1" as="geometry">
            <mxPoint x="690" y="344" as="sourcePoint" />
            <mxPoint x="750" y="205" as="targetPoint" />
          </mxGeometry>
        </mxCell>
        <mxCell id="lWYO2RM16D954IE-6P65-131" value="" style="endArrow=none;html=1;entryX=1;entryY=0.5;entryDx=0;entryDy=0;" parent="WIyWlLk6GJQsqaUBKTNV-1" target="lWYO2RM16D954IE-6P65-122" edge="1">
          <mxGeometry width="50" height="50" relative="1" as="geometry">
            <mxPoint x="840" y="345" as="sourcePoint" />
            <mxPoint x="1260" y="315" as="targetPoint" />
            <Array as="points">
              <mxPoint x="840" y="217" />
            </Array>
          </mxGeometry>
        </mxCell>
        <mxCell id="lWYO2RM16D954IE-6P65-132" value="0..*" style="text;html=1;align=center;verticalAlign=middle;resizable=0;points=[];autosize=1;" parent="WIyWlLk6GJQsqaUBKTNV-1" vertex="1">
          <mxGeometry x="835" y="328" width="30" height="20" as="geometry" />
        </mxCell>
        <mxCell id="lWYO2RM16D954IE-6P65-2" value="OfertaProducto" style="swimlane;fontStyle=1;childLayout=stackLayout;horizontal=1;startSize=26;fillColor=none;horizontalStack=0;resizeParent=1;resizeParentMax=0;resizeLast=0;collapsible=1;marginBottom=0;shadow=0;" parent="WIyWlLk6GJQsqaUBKTNV-1" vertex="1">
          <mxGeometry x="507.5" y="210" width="145.75" height="130" as="geometry" />
        </mxCell>
        <mxCell id="lWYO2RM16D954IE-6P65-3" value="+costoProducción:Double" style="text;strokeColor=none;fillColor=none;align=left;verticalAlign=top;spacingLeft=4;spacingRight=4;overflow=hidden;rotatable=0;points=[[0,0.5],[1,0.5]];portConstraint=eastwest;" parent="lWYO2RM16D954IE-6P65-2" vertex="1">
          <mxGeometry y="26" width="145.75" height="26" as="geometry" />
        </mxCell>
        <mxCell id="lWYO2RM16D954IE-6P65-4" value="+precioVenta: Double" style="text;strokeColor=none;fillColor=none;align=left;verticalAlign=top;spacingLeft=4;spacingRight=4;overflow=hidden;rotatable=0;points=[[0,0.5],[1,0.5]];portConstraint=eastwest;" parent="lWYO2RM16D954IE-6P65-2" vertex="1">
          <mxGeometry y="52" width="145.75" height="26" as="geometry" />
        </mxCell>
        <mxCell id="lWYO2RM16D954IE-6P65-5" value="+disponible: Boolean" style="text;strokeColor=none;fillColor=none;align=left;verticalAlign=top;spacingLeft=4;spacingRight=4;overflow=hidden;rotatable=0;points=[[0,0.5],[1,0.5]];portConstraint=eastwest;" parent="lWYO2RM16D954IE-6P65-2" vertex="1">
          <mxGeometry y="78" width="145.75" height="26" as="geometry" />
        </mxCell>
        <mxCell id="v-9dEvFphqcEGyPLS1hG-0" value="+cantidad: Integer" style="text;strokeColor=none;fillColor=none;align=left;verticalAlign=top;spacingLeft=4;spacingRight=4;overflow=hidden;rotatable=0;points=[[0,0.5],[1,0.5]];portConstraint=eastwest;" parent="lWYO2RM16D954IE-6P65-2" vertex="1">
          <mxGeometry y="104" width="145.75" height="26" as="geometry" />
        </mxCell>
        <mxCell id="lWYO2RM16D954IE-6P65-135" value="0..*" style="text;html=1;align=center;verticalAlign=middle;resizable=0;points=[];autosize=1;" parent="WIyWlLk6GJQsqaUBKTNV-1" vertex="1">
          <mxGeometry x="1190" y="604.5" width="30" height="20" as="geometry" />
        </mxCell>
        <mxCell id="lWYO2RM16D954IE-6P65-137" style="edgeStyle=orthogonalEdgeStyle;rounded=0;orthogonalLoop=1;jettySize=auto;html=1;entryX=1;entryY=0.5;entryDx=0;entryDy=0;" parent="WIyWlLk6GJQsqaUBKTNV-1" source="lWYO2RM16D954IE-6P65-45" target="lWYO2RM16D954IE-6P65-19" edge="1">
          <mxGeometry relative="1" as="geometry">
            <Array as="points">
              <mxPoint x="1430" y="605" />
              <mxPoint x="1430" y="433" />
            </Array>
          </mxGeometry>
        </mxCell>
        <mxCell id="lWYO2RM16D954IE-6P65-139" value="0..*" style="text;html=1;align=center;verticalAlign=middle;resizable=0;points=[];autosize=1;" parent="WIyWlLk6GJQsqaUBKTNV-1" vertex="1">
          <mxGeometry x="1395" y="582" width="30" height="20" as="geometry" />
        </mxCell>
        <mxCell id="lWYO2RM16D954IE-6P65-150" style="edgeStyle=orthogonalEdgeStyle;rounded=0;orthogonalLoop=1;jettySize=auto;html=1;exitX=0;exitY=0.5;exitDx=0;exitDy=0;" parent="WIyWlLk6GJQsqaUBKTNV-1" source="lWYO2RM16D954IE-6P65-143" target="G8lH4gLovTFMAIjntWoF-33" edge="1">
          <mxGeometry relative="1" as="geometry" />
        </mxCell>
        <mxCell id="lWYO2RM16D954IE-6P65-152" style="edgeStyle=orthogonalEdgeStyle;rounded=0;orthogonalLoop=1;jettySize=auto;html=1;exitX=0.25;exitY=0;exitDx=0;exitDy=0;entryX=1;entryY=0.5;entryDx=0;entryDy=0;" parent="WIyWlLk6GJQsqaUBKTNV-1" source="lWYO2RM16D954IE-6P65-143" edge="1" target="G8lH4gLovTFMAIjntWoF-47">
          <mxGeometry relative="1" as="geometry">
            <mxPoint x="870" y="420" as="targetPoint" />
            <Array as="points">
              <mxPoint x="919" y="412" />
            </Array>
          </mxGeometry>
        </mxCell>
        <mxCell id="lWYO2RM16D954IE-6P65-151" value="0..*" style="text;html=1;align=center;verticalAlign=middle;resizable=0;points=[];autosize=1;" parent="WIyWlLk6GJQsqaUBKTNV-1" vertex="1">
          <mxGeometry x="535" y="471.5" width="30" height="20" as="geometry" />
        </mxCell>
        <mxCell id="lWYO2RM16D954IE-6P65-166" style="edgeStyle=orthogonalEdgeStyle;rounded=0;orthogonalLoop=1;jettySize=auto;html=1;" parent="WIyWlLk6GJQsqaUBKTNV-1" source="lWYO2RM16D954IE-6P65-143" edge="1">
          <mxGeometry relative="1" as="geometry">
            <mxPoint x="340" y="120" as="targetPoint" />
            <Array as="points">
              <mxPoint x="945" y="790" />
              <mxPoint x="30" y="790" />
              <mxPoint x="30" y="120" />
            </Array>
          </mxGeometry>
        </mxCell>
        <mxCell id="lWYO2RM16D954IE-6P65-168" value="0..*" style="text;html=1;align=center;verticalAlign=middle;resizable=0;points=[];autosize=1;" parent="WIyWlLk6GJQsqaUBKTNV-1" vertex="1">
          <mxGeometry x="308" y="126" width="30" height="20" as="geometry" />
        </mxCell>
        <mxCell id="lWYO2RM16D954IE-6P65-6" value="Pedido" style="swimlane;fontStyle=1;childLayout=stackLayout;horizontal=1;startSize=26;fillColor=none;horizontalStack=0;resizeParent=1;resizeParentMax=0;resizeLast=0;collapsible=1;marginBottom=0;" parent="WIyWlLk6GJQsqaUBKTNV-1" vertex="1">
          <mxGeometry x="346.25" y="600" width="162.5" height="130" as="geometry" />
        </mxCell>
        <mxCell id="lWYO2RM16D954IE-6P65-8" value="+ fecha: Date" style="text;strokeColor=none;fillColor=none;align=left;verticalAlign=top;spacingLeft=4;spacingRight=4;overflow=hidden;rotatable=0;points=[[0,0.5],[1,0.5]];portConstraint=eastwest;" parent="lWYO2RM16D954IE-6P65-6" vertex="1">
          <mxGeometry y="26" width="162.5" height="26" as="geometry" />
        </mxCell>
        <mxCell id="lWYO2RM16D954IE-6P65-7" value="+ estado: Estado" style="text;strokeColor=none;fillColor=none;align=left;verticalAlign=top;spacingLeft=4;spacingRight=4;overflow=hidden;rotatable=0;points=[[0,0.5],[1,0.5]];portConstraint=eastwest;" parent="lWYO2RM16D954IE-6P65-6" vertex="1">
          <mxGeometry y="52" width="162.5" height="26" as="geometry" />
        </mxCell>
        <mxCell id="lWYO2RM16D954IE-6P65-10" value="+ horaEntrega: Date" style="text;strokeColor=none;fillColor=none;align=left;verticalAlign=top;spacingLeft=4;spacingRight=4;overflow=hidden;rotatable=0;points=[[0,0.5],[1,0.5]];portConstraint=eastwest;" parent="lWYO2RM16D954IE-6P65-6" vertex="1">
          <mxGeometry y="78" width="162.5" height="26" as="geometry" />
        </mxCell>
        <mxCell id="z9EYBBxq6BNeT-gzfXoJ-0" value="+ horaPedido: Date" style="text;strokeColor=none;fillColor=none;align=left;verticalAlign=top;spacingLeft=4;spacingRight=4;overflow=hidden;rotatable=0;points=[[0,0.5],[1,0.5]];portConstraint=eastwest;" parent="lWYO2RM16D954IE-6P65-6" vertex="1">
          <mxGeometry y="104" width="162.5" height="26" as="geometry" />
        </mxCell>
        <mxCell id="hV3lQQJAesStD1puutez-0" value="&lt;font style=&quot;font-size: 9px&quot;&gt;equivalentes&lt;/font&gt;" style="text;html=1;align=center;verticalAlign=middle;resizable=0;points=[];autosize=1;" parent="WIyWlLk6GJQsqaUBKTNV-1" vertex="1">
          <mxGeometry x="255" y="332" width="70" height="20" as="geometry" />
        </mxCell>
        <mxCell id="hV3lQQJAesStD1puutez-2" value="&lt;font style=&quot;font-size: 9px&quot;&gt;equivalentes&lt;/font&gt;" style="text;html=1;align=center;verticalAlign=middle;resizable=0;points=[];autosize=1;" parent="WIyWlLk6GJQsqaUBKTNV-1" vertex="1">
          <mxGeometry x="770" y="325" width="70" height="20" as="geometry" />
        </mxCell>
        <mxCell id="hV3lQQJAesStD1puutez-7" value="0..*" style="text;html=1;align=center;verticalAlign=middle;resizable=0;points=[];autosize=1;" parent="WIyWlLk6GJQsqaUBKTNV-1" vertex="1">
          <mxGeometry x="715" y="328" width="30" height="20" as="geometry" />
        </mxCell>
        <mxCell id="hV3lQQJAesStD1puutez-8" value="1" style="text;html=1;align=center;verticalAlign=middle;resizable=0;points=[];autosize=1;" parent="WIyWlLk6GJQsqaUBKTNV-1" vertex="1">
          <mxGeometry x="472" y="150" width="20" height="20" as="geometry" />
        </mxCell>
        <mxCell id="lWYO2RM16D954IE-6P65-18" value="Zona" style="swimlane;fontStyle=1;childLayout=stackLayout;horizontal=1;startSize=26;fillColor=none;horizontalStack=0;resizeParent=1;resizeParentMax=0;resizeLast=0;collapsible=1;marginBottom=0;" parent="WIyWlLk6GJQsqaUBKTNV-1" vertex="1">
          <mxGeometry x="1220" y="394" width="160" height="104" as="geometry">
            <mxRectangle x="570" y="90" width="60" height="26" as="alternateBounds" />
          </mxGeometry>
        </mxCell>
        <mxCell id="lWYO2RM16D954IE-6P65-19" value="+ tipoZona: TipoZona" style="text;strokeColor=none;fillColor=none;align=left;verticalAlign=top;spacingLeft=4;spacingRight=4;overflow=hidden;rotatable=0;points=[[0,0.5],[1,0.5]];portConstraint=eastwest;" parent="lWYO2RM16D954IE-6P65-18" vertex="1">
          <mxGeometry y="26" width="160" height="26" as="geometry" />
        </mxCell>
        <mxCell id="fQCK8GI9MLXAGGj5P5s3-3" value="+ capacidad:Integer" style="text;strokeColor=none;fillColor=none;align=left;verticalAlign=top;spacingLeft=4;spacingRight=4;overflow=hidden;rotatable=0;points=[[0,0.5],[1,0.5]];portConstraint=eastwest;" vertex="1" parent="lWYO2RM16D954IE-6P65-18">
          <mxGeometry y="52" width="160" height="26" as="geometry" />
        </mxCell>
        <mxCell id="lWYO2RM16D954IE-6P65-21" value="+ disponibilidad: Boolean" style="text;strokeColor=none;fillColor=none;align=left;verticalAlign=top;spacingLeft=4;spacingRight=4;overflow=hidden;rotatable=0;points=[[0,0.5],[1,0.5]];portConstraint=eastwest;" parent="lWYO2RM16D954IE-6P65-18" vertex="1">
          <mxGeometry y="78" width="160" height="26" as="geometry" />
        </mxCell>
        <mxCell id="4QOUBigQVk_e8kGPV9fo-7" value="" style="endArrow=open;html=1;endSize=12;startArrow=diamondThin;startSize=14;startFill=1;edgeStyle=orthogonalEdgeStyle;align=left;verticalAlign=bottom;entryX=0;entryY=0.5;entryDx=0;entryDy=0;exitX=0.836;exitY=1;exitDx=0;exitDy=0;exitPerimeter=0;" parent="WIyWlLk6GJQsqaUBKTNV-1" target="z9EYBBxq6BNeT-gzfXoJ-1" edge="1" source="lWYO2RM16D954IE-6P65-87">
          <mxGeometry x="0.777" y="191" relative="1" as="geometry">
            <mxPoint x="1160" y="310" as="sourcePoint" />
            <mxPoint x="1310" y="510" as="targetPoint" />
            <mxPoint as="offset" />
          </mxGeometry>
        </mxCell>
        <mxCell id="4QOUBigQVk_e8kGPV9fo-9" value="1" style="text;html=1;align=center;verticalAlign=middle;resizable=0;points=[];autosize=1;" parent="WIyWlLk6GJQsqaUBKTNV-1" vertex="1">
          <mxGeometry x="1023.75" y="265" width="20" height="20" as="geometry" />
        </mxCell>
        <mxCell id="pvyvYuHBWzStjaBC78xh-2" value="0..*" style="text;html=1;align=center;verticalAlign=middle;resizable=0;points=[];autosize=1;" parent="WIyWlLk6GJQsqaUBKTNV-1" vertex="1">
          <mxGeometry x="845" y="500" width="30" height="20" as="geometry" />
        </mxCell>
        <mxCell id="LS7pylw66wCmVB_VHnnQ-4" value="0..*" style="text;html=1;align=center;verticalAlign=middle;resizable=0;points=[];autosize=1;" parent="WIyWlLk6GJQsqaUBKTNV-1" vertex="1">
          <mxGeometry x="428" y="730" width="30" height="20" as="geometry" />
        </mxCell>
        <mxCell id="4QOUBigQVk_e8kGPV9fo-12" value="0..*" style="text;html=1;align=center;verticalAlign=middle;resizable=0;points=[];autosize=1;" parent="WIyWlLk6GJQsqaUBKTNV-1" vertex="1">
          <mxGeometry x="423" y="330" width="30" height="20" as="geometry" />
        </mxCell>
        <mxCell id="pvyvYuHBWzStjaBC78xh-3" value="0..*" style="text;html=1;align=center;verticalAlign=middle;resizable=0;points=[];autosize=1;" parent="WIyWlLk6GJQsqaUBKTNV-1" vertex="1">
          <mxGeometry x="914.75" y="521" width="30" height="20" as="geometry" />
        </mxCell>
        <mxCell id="pvyvYuHBWzStjaBC78xh-4" value="0..*" style="text;html=1;align=center;verticalAlign=middle;resizable=0;points=[];autosize=1;" parent="WIyWlLk6GJQsqaUBKTNV-1" vertex="1">
          <mxGeometry x="920" y="449" width="30" height="20" as="geometry" />
        </mxCell>
        <mxCell id="pvyvYuHBWzStjaBC78xh-5" value="0..*" style="text;html=1;align=center;verticalAlign=middle;resizable=0;points=[];autosize=1;" parent="WIyWlLk6GJQsqaUBKTNV-1" vertex="1">
          <mxGeometry x="985" y="446" width="30" height="20" as="geometry" />
        </mxCell>
        <mxCell id="pvyvYuHBWzStjaBC78xh-6" value="0..*" style="text;html=1;align=center;verticalAlign=middle;resizable=0;points=[];autosize=1;" parent="WIyWlLk6GJQsqaUBKTNV-1" vertex="1">
          <mxGeometry x="875" y="386" width="30" height="20" as="geometry" />
        </mxCell>
        <mxCell id="lWYO2RM16D954IE-6P65-143" value="Preferencia" style="swimlane;fontStyle=1;childLayout=stackLayout;horizontal=1;startSize=26;fillColor=none;horizontalStack=0;resizeParent=1;resizeParentMax=0;resizeLast=0;collapsible=1;marginBottom=0;shadow=0;strokeColor=#000000;" parent="WIyWlLk6GJQsqaUBKTNV-1" vertex="1">
          <mxGeometry x="890" y="469" width="115" height="52" as="geometry" />
        </mxCell>
        <mxCell id="LS7pylw66wCmVB_VHnnQ-3" style="edgeStyle=orthogonalEdgeStyle;rounded=0;orthogonalLoop=1;jettySize=auto;html=1;entryX=0.505;entryY=0.979;entryDx=0;entryDy=0;entryPerimeter=0;" parent="WIyWlLk6GJQsqaUBKTNV-1" source="lWYO2RM16D954IE-6P65-87" target="z9EYBBxq6BNeT-gzfXoJ-0" edge="1">
          <mxGeometry relative="1" as="geometry">
            <mxPoint x="1052.5" y="604.5" as="sourcePoint" />
            <Array as="points">
              <mxPoint x="1074" y="820" />
              <mxPoint x="428" y="820" />
            </Array>
          </mxGeometry>
        </mxCell>
        <mxCell id="LS7pylw66wCmVB_VHnnQ-5" value="1" style="text;html=1;align=center;verticalAlign=middle;resizable=0;points=[];autosize=1;" parent="WIyWlLk6GJQsqaUBKTNV-1" vertex="1">
          <mxGeometry x="1070" y="310" width="20" height="20" as="geometry" />
        </mxCell>
        <mxCell id="LS7pylw66wCmVB_VHnnQ-6" value="&lt;p style=&quot;margin: 0px ; margin-top: 4px ; text-align: center&quot;&gt;&lt;i&gt;&amp;lt;&amp;lt;Enumeration&amp;gt;&amp;gt;&lt;/i&gt;&lt;br&gt;&lt;b&gt;Estado&lt;/b&gt;&lt;/p&gt;&lt;hr size=&quot;1&quot;&gt;&lt;p style=&quot;margin: 0px ; margin-left: 4px&quot;&gt;&lt;span&gt;COMPLETADO&lt;/span&gt;&lt;/p&gt;&lt;p style=&quot;margin: 0px ; margin-left: 4px&quot;&gt;&lt;span&gt;SERVIDO&lt;/span&gt;&lt;/p&gt;&lt;p style=&quot;margin: 0px ; margin-left: 4px&quot;&gt;CANCELADO&lt;/p&gt;&lt;p style=&quot;margin: 0px ; margin-left: 4px&quot;&gt;&lt;br&gt;&lt;/p&gt;" style="verticalAlign=top;align=left;overflow=fill;fontSize=12;fontFamily=Helvetica;html=1;" parent="WIyWlLk6GJQsqaUBKTNV-1" vertex="1">
          <mxGeometry x="220" y="615" width="100" height="100" as="geometry" />
        </mxCell>
        <mxCell id="lWYO2RM16D954IE-6P65-11" value="Pago" style="swimlane;fontStyle=1;childLayout=stackLayout;horizontal=1;startSize=34;fillColor=none;horizontalStack=0;resizeParent=1;resizeParentMax=0;resizeLast=0;collapsible=1;marginBottom=0;" parent="WIyWlLk6GJQsqaUBKTNV-1" vertex="1">
          <mxGeometry x="660" y="596" width="140" height="138" as="geometry" />
        </mxCell>
        <mxCell id="4QOUBigQVk_e8kGPV9fo-13" value="+ monto: Double" style="text;strokeColor=none;fillColor=none;align=left;verticalAlign=top;spacingLeft=4;spacingRight=4;overflow=hidden;rotatable=0;points=[[0,0.5],[1,0.5]];portConstraint=eastwest;" parent="lWYO2RM16D954IE-6P65-11" vertex="1">
          <mxGeometry y="34" width="140" height="26" as="geometry" />
        </mxCell>
        <mxCell id="lWYO2RM16D954IE-6P65-13" value="+ pagado: Boolean" style="text;strokeColor=none;fillColor=none;align=left;verticalAlign=top;spacingLeft=4;spacingRight=4;overflow=hidden;rotatable=0;points=[[0,0.5],[1,0.5]];portConstraint=eastwest;" parent="lWYO2RM16D954IE-6P65-11" vertex="1">
          <mxGeometry y="60" width="140" height="26" as="geometry" />
        </mxCell>
        <mxCell id="lWYO2RM16D954IE-6P65-14" value="+ cuotas: Integer" style="text;strokeColor=none;fillColor=none;align=left;verticalAlign=top;spacingLeft=4;spacingRight=4;overflow=hidden;rotatable=0;points=[[0,0.5],[1,0.5]];portConstraint=eastwest;" parent="lWYO2RM16D954IE-6P65-11" vertex="1">
          <mxGeometry y="86" width="140" height="26" as="geometry" />
        </mxCell>
        <mxCell id="lWYO2RM16D954IE-6P65-15" value="+ modoPago: String" style="text;strokeColor=none;fillColor=none;align=left;verticalAlign=top;spacingLeft=4;spacingRight=4;overflow=hidden;rotatable=0;points=[[0,0.5],[1,0.5]];portConstraint=eastwest;" parent="lWYO2RM16D954IE-6P65-11" vertex="1">
          <mxGeometry y="112" width="140" height="26" as="geometry" />
        </mxCell>
        <mxCell id="LS7pylw66wCmVB_VHnnQ-8" style="edgeStyle=orthogonalEdgeStyle;rounded=0;orthogonalLoop=1;jettySize=auto;html=1;entryX=0.5;entryY=1;entryDx=0;entryDy=0;" parent="WIyWlLk6GJQsqaUBKTNV-1" source="LS7pylw66wCmVB_VHnnQ-7" target="G8lH4gLovTFMAIjntWoF-50" edge="1">
          <mxGeometry relative="1" as="geometry">
            <Array as="points">
              <mxPoint x="1310" y="840" />
              <mxPoint x="140" y="840" />
            </Array>
          </mxGeometry>
        </mxCell>
        <mxCell id="LS7pylw66wCmVB_VHnnQ-9" value="1" style="text;html=1;align=center;verticalAlign=middle;resizable=0;points=[];autosize=1;" parent="WIyWlLk6GJQsqaUBKTNV-1" vertex="1">
          <mxGeometry x="120" y="480" width="20" height="20" as="geometry" />
        </mxCell>
        <mxCell id="LS7pylw66wCmVB_VHnnQ-10" value="0..*" style="text;html=1;align=center;verticalAlign=middle;resizable=0;points=[];autosize=1;" parent="WIyWlLk6GJQsqaUBKTNV-1" vertex="1">
          <mxGeometry x="1310" y="696" width="30" height="20" as="geometry" />
        </mxCell>
        <mxCell id="fQCK8GI9MLXAGGj5P5s3-1" value="1" style="text;html=1;align=center;verticalAlign=middle;resizable=0;points=[];autosize=1;" vertex="1" parent="WIyWlLk6GJQsqaUBKTNV-1">
          <mxGeometry x="431" y="201" width="20" height="20" as="geometry" />
        </mxCell>
        <mxCell id="G8lH4gLovTFMAIjntWoF-2" value="Restaurante" style="swimlane;fontStyle=1;align=center;verticalAlign=top;childLayout=stackLayout;horizontal=1;startSize=26;horizontalStack=0;resizeParent=1;resizeParentMax=0;resizeLast=0;collapsible=1;marginBottom=0;" parent="WIyWlLk6GJQsqaUBKTNV-1" vertex="1">
          <mxGeometry x="338" y="97" width="132" height="104" as="geometry" />
        </mxCell>
        <mxCell id="G8lH4gLovTFMAIjntWoF-3" value="+ nombre: String" style="text;strokeColor=none;fillColor=none;align=left;verticalAlign=top;spacingLeft=4;spacingRight=4;overflow=hidden;rotatable=0;points=[[0,0.5],[1,0.5]];portConstraint=eastwest;" parent="G8lH4gLovTFMAIjntWoF-2" vertex="1">
          <mxGeometry y="26" width="132" height="26" as="geometry" />
        </mxCell>
        <mxCell id="fQCK8GI9MLXAGGj5P5s3-0" value="+ representante: String" style="text;strokeColor=none;fillColor=none;align=left;verticalAlign=top;spacingLeft=4;spacingRight=4;overflow=hidden;rotatable=0;points=[[0,0.5],[1,0.5]];portConstraint=eastwest;" vertex="1" parent="G8lH4gLovTFMAIjntWoF-2">
          <mxGeometry y="52" width="132" height="26" as="geometry" />
        </mxCell>
        <mxCell id="G8lH4gLovTFMAIjntWoF-17" value="+ tipoComida: String" style="text;strokeColor=none;fillColor=none;align=left;verticalAlign=top;spacingLeft=4;spacingRight=4;overflow=hidden;rotatable=0;points=[[0,0.5],[1,0.5]];portConstraint=eastwest;" parent="G8lH4gLovTFMAIjntWoF-2" vertex="1">
          <mxGeometry y="78" width="132" height="26" as="geometry" />
        </mxCell>
        <mxCell id="lWYO2RM16D954IE-6P65-85" value="Cliente" style="swimlane;fontStyle=1;childLayout=stackLayout;horizontal=1;startSize=26;fillColor=none;horizontalStack=0;resizeParent=1;resizeParentMax=0;resizeLast=0;collapsible=1;marginBottom=0;shadow=0;" parent="WIyWlLk6GJQsqaUBKTNV-1" vertex="1">
          <mxGeometry x="1043.75" y="228" width="141.5" height="78" as="geometry" />
        </mxCell>
        <mxCell id="lWYO2RM16D954IE-6P65-86" value="+ correo: String" style="text;strokeColor=none;fillColor=none;align=left;verticalAlign=top;spacingLeft=4;spacingRight=4;overflow=hidden;rotatable=0;points=[[0,0.5],[1,0.5]];portConstraint=eastwest;" parent="lWYO2RM16D954IE-6P65-85" vertex="1">
          <mxGeometry y="26" width="141.5" height="26" as="geometry" />
        </mxCell>
        <mxCell id="lWYO2RM16D954IE-6P65-87" value="+ contraseña: String" style="text;strokeColor=none;fillColor=none;align=left;verticalAlign=top;spacingLeft=4;spacingRight=4;overflow=hidden;rotatable=0;points=[[0,0.5],[1,0.5]];portConstraint=eastwest;" parent="lWYO2RM16D954IE-6P65-85" vertex="1">
          <mxGeometry y="52" width="141.5" height="26" as="geometry" />
        </mxCell>
        <mxCell id="mlz2ho6D6sc-BdiUoQuA-2" value="1..*" style="text;html=1;align=center;verticalAlign=middle;resizable=0;points=[];autosize=1;" vertex="1" parent="WIyWlLk6GJQsqaUBKTNV-1">
          <mxGeometry x="1380" y="406" width="30" height="20" as="geometry" />
        </mxCell>
        <mxCell id="G8lH4gLovTFMAIjntWoF-39" value="Ingrediente" style="swimlane;fontStyle=1;align=center;verticalAlign=top;childLayout=stackLayout;horizontal=1;startSize=26;horizontalStack=0;resizeParent=1;resizeParentMax=0;resizeLast=0;collapsible=1;marginBottom=0;" parent="WIyWlLk6GJQsqaUBKTNV-1" vertex="1">
          <mxGeometry x="705" y="348" width="170" height="104" as="geometry" />
        </mxCell>
        <mxCell id="G8lH4gLovTFMAIjntWoF-40" value="+ nombre: String" style="text;strokeColor=none;fillColor=none;align=left;verticalAlign=top;spacingLeft=4;spacingRight=4;overflow=hidden;rotatable=0;points=[[0,0.5],[1,0.5]];portConstraint=eastwest;" parent="G8lH4gLovTFMAIjntWoF-39" vertex="1">
          <mxGeometry y="26" width="170" height="26" as="geometry" />
        </mxCell>
        <mxCell id="G8lH4gLovTFMAIjntWoF-47" value="+ descripciónEspañol: String" style="text;strokeColor=none;fillColor=none;align=left;verticalAlign=top;spacingLeft=4;spacingRight=4;overflow=hidden;rotatable=0;points=[[0,0.5],[1,0.5]];portConstraint=eastwest;" parent="G8lH4gLovTFMAIjntWoF-39" vertex="1">
          <mxGeometry y="52" width="170" height="26" as="geometry" />
        </mxCell>
        <mxCell id="G8lH4gLovTFMAIjntWoF-46" value="+ descripciónInglés: String" style="text;strokeColor=none;fillColor=none;align=left;verticalAlign=top;spacingLeft=4;spacingRight=4;overflow=hidden;rotatable=0;points=[[0,0.5],[1,0.5]];portConstraint=eastwest;" parent="G8lH4gLovTFMAIjntWoF-39" vertex="1">
          <mxGeometry y="78" width="170" height="26" as="geometry" />
        </mxCell>
        <mxCell id="G8lH4gLovTFMAIjntWoF-20" value="PáginaWeb" style="swimlane;fontStyle=1;align=center;verticalAlign=top;childLayout=stackLayout;horizontal=1;startSize=26;horizontalStack=0;resizeParent=1;resizeParentMax=0;resizeLast=0;collapsible=1;marginBottom=0;" parent="WIyWlLk6GJQsqaUBKTNV-1" vertex="1">
          <mxGeometry x="334" y="-40" width="140" height="78" as="geometry" />
        </mxCell>
        <mxCell id="G8lH4gLovTFMAIjntWoF-21" value="+ logros: String" style="text;strokeColor=none;fillColor=none;align=left;verticalAlign=top;spacingLeft=4;spacingRight=4;overflow=hidden;rotatable=0;points=[[0,0.5],[1,0.5]];portConstraint=eastwest;" parent="G8lH4gLovTFMAIjntWoF-20" vertex="1">
          <mxGeometry y="26" width="140" height="26" as="geometry" />
        </mxCell>
        <mxCell id="G8lH4gLovTFMAIjntWoF-24" value="+ trayectoria: String" style="text;strokeColor=none;fillColor=none;align=left;verticalAlign=top;spacingLeft=4;spacingRight=4;overflow=hidden;rotatable=0;points=[[0,0.5],[1,0.5]];portConstraint=eastwest;" parent="G8lH4gLovTFMAIjntWoF-20" vertex="1">
          <mxGeometry y="52" width="140" height="26" as="geometry" />
        </mxCell>
        <mxCell id="lWYO2RM16D954IE-6P65-40" style="edgeStyle=orthogonalEdgeStyle;rounded=0;orthogonalLoop=1;jettySize=auto;html=1;exitX=1;exitY=0.5;exitDx=0;exitDy=0;" parent="G8lH4gLovTFMAIjntWoF-20" source="G8lH4gLovTFMAIjntWoF-21" target="G8lH4gLovTFMAIjntWoF-21" edge="1">
          <mxGeometry relative="1" as="geometry" />
        </mxCell>
        <mxCell id="fQCK8GI9MLXAGGj5P5s3-2" value="&lt;p style=&quot;margin: 0px ; margin-top: 4px ; text-align: center&quot;&gt;&lt;i&gt;&amp;lt;&amp;lt;Enumeration&amp;gt;&amp;gt;&lt;/i&gt;&lt;br&gt;&lt;b&gt;TipoPersona&lt;/b&gt;&lt;/p&gt;&lt;hr size=&quot;1&quot;&gt;&lt;p style=&quot;margin: 0px ; margin-left: 4px&quot;&gt;CLIENTE&lt;/p&gt;&lt;p style=&quot;margin: 0px ; margin-left: 4px&quot;&gt;ADMINISTRADOR&lt;/p&gt;&lt;p style=&quot;margin: 0px ; margin-left: 4px&quot;&gt;ORGANIZADOR&lt;/p&gt;&lt;p style=&quot;margin: 0px ; margin-left: 4px&quot;&gt;&lt;br&gt;&lt;/p&gt;&lt;p style=&quot;margin: 0px ; margin-left: 4px&quot;&gt;&lt;br&gt;&lt;/p&gt;" style="verticalAlign=top;align=left;overflow=fill;fontSize=12;fontFamily=Helvetica;html=1;" vertex="1" parent="WIyWlLk6GJQsqaUBKTNV-1">
          <mxGeometry x="1290" y="64" width="135" height="106" as="geometry" />
        </mxCell>
        <mxCell id="lWYO2RM16D954IE-6P65-90" value="Persona" style="swimlane;fontStyle=1;childLayout=stackLayout;horizontal=1;startSize=26;fillColor=none;horizontalStack=0;resizeParent=1;resizeParentMax=0;resizeLast=0;collapsible=1;marginBottom=0;" parent="WIyWlLk6GJQsqaUBKTNV-1" vertex="1">
          <mxGeometry x="1030" y="35" width="140" height="104" as="geometry" />
        </mxCell>
        <mxCell id="lWYO2RM16D954IE-6P65-91" value="+ nombre: String" style="text;strokeColor=none;fillColor=none;align=left;verticalAlign=top;spacingLeft=4;spacingRight=4;overflow=hidden;rotatable=0;points=[[0,0.5],[1,0.5]];portConstraint=eastwest;" parent="lWYO2RM16D954IE-6P65-90" vertex="1">
          <mxGeometry y="26" width="140" height="26" as="geometry" />
        </mxCell>
        <mxCell id="lWYO2RM16D954IE-6P65-92" value="+ cédula: Integer" style="text;strokeColor=none;fillColor=none;align=left;verticalAlign=top;spacingLeft=4;spacingRight=4;overflow=hidden;rotatable=0;points=[[0,0.5],[1,0.5]];portConstraint=eastwest;" parent="lWYO2RM16D954IE-6P65-90" vertex="1">
          <mxGeometry y="52" width="140" height="26" as="geometry" />
        </mxCell>
        <mxCell id="mlz2ho6D6sc-BdiUoQuA-1" value="+ tipo: TipoPersona" style="text;strokeColor=none;fillColor=none;align=left;verticalAlign=top;spacingLeft=4;spacingRight=4;overflow=hidden;rotatable=0;points=[[0,0.5],[1,0.5]];portConstraint=eastwest;" vertex="1" parent="lWYO2RM16D954IE-6P65-90">
          <mxGeometry y="78" width="140" height="26" as="geometry" />
        </mxCell>
      </root>
    </mxGraphModel>
  </diagram>
</mxfile>
